<?xml version="1.0" encoding="utf-8"?>
<!-- Generator: Adobe Illustrator 26.0.3, SVG Export Plug-In . SVG Version: 6.00 Build 0)  -->
<svg version="1.0" id="katman_1" xmlns="http://www.w3.org/2000/svg" xmlns:xlink="http://www.w3.org/1999/xlink" x="0px" y="0px"
	 viewBox="0 0 800 600" style="enable-background:new 0 0 800 600;" xml:space="preserve">
<style type="text/css">
	.st0{fill-rule:evenodd;clip-rule:evenodd;fill:#3164FA;}
	.st1{fill:#3164FA;}
</style>
<path class="st0" d="M143.7,228.9l-8.2-8.9c12.3-1.6,44.9,0.5,76.4,21.9c0.4,3,0.3,5.9,0.3,5.9l0.8,0.5c1.5,2.1,3.2,5.9,4.3,10.8
	c1,4.8,1.3,10.3,0.1,15.5c-1.2,5.3-3.5,9.7-5.7,12.9c-2.3,3.3-4.4,5.1-5.1,5.5l-0.2,0.1c-3.9,0.7-9.3,3.6-11.4,10.8
	c-6.4,4-17.2,8.3-31.9,8.3c-13,0-26.2-3.8-36.2-11c-9.9-7.2-16.5-17.8-16.5-31.9c0-11.1,5-19.8,11.3-26.2
	c6.4-6.5,15.2-11.7,20.2-13.4l1.2-0.4l-0.1-0.1L143.7,228.9z M197.9,246.4c-2.5,2.8-4.8,4.1-5.5,4.5c-14.5-3.3-19.7-11.4-19.7-11.4
	c13.7-0.1,26,3.4,35,9.3C207.8,248.8,202.9,247.1,197.9,246.4z"/>
<path class="st1" d="M130.6,230.5c-30.7,7.3-53.9,35.5-53.9,69.3c0,43.9,37.1,80.1,82.8,80.1c34.2,0,62.6-20.9,77.5-48.8
	c-19.3,4.6-42.4-3.3-43.5-20.7c0-0.1,0.1-0.3,0.1-0.4c-7.2,3.7-17.5,6.9-30.5,6.9c-13.8,0-28.1-4-38.9-11.9
	c-10.9-8-18.4-20-18.4-35.7c0-12.7,5.7-22.5,12.7-29.5l0,0c3.3-3.3,7.5-6.4,11.4-8.8C130.1,230.8,130.4,230.6,130.6,230.5z"/>
<path class="st1" d="M106.5,269.3c0-12.4,5.6-22.1,12.5-29c4-4,9.5-7.8,14-10.3l0,0c-4.5,2.5-10,6.3-14,10.3
	C112.1,247.2,106.5,256.9,106.5,269.3z"/>
<path class="st1" d="M212.8,293.6c1.4,0.6,2.3,1.3,2.7,1.8c1.1,1.2,3.8,4.6,0.5,10.1c6.8-1.2,17.4-8.1,18.2-25.6
	c0.5-11.7-5.6-20.2-13.6-26.5c0.5,1.5,0.9,3,1.3,4.7c1.1,5.3,1.5,11.5,0.1,17.6c-1.4,6-3.9,10.9-6.5,14.5
	C214.6,291.4,213.7,292.6,212.8,293.6z"/>
<path class="st1" d="M538.7,260.7c11.7,0,19.1,3.3,26.1,9.3l-7.6,9.1c-5.2-4.5-10.5-7.2-19-7.2c-12.4,0-22,10.9-22,24l0,0.8
	c0.3,13.7,9.4,23.8,23.1,23.8c6.5,0,12.2-2,16.4-5.2v-12.7l11.5-10.5v28.7c-6.8,5.8-16.3,10.6-28.3,10.6
	c-21.2,0-35.2-15.2-35.2-35.1l0-0.8C504,276.6,518.3,260.7,538.7,260.7z M615.5,260.7c20.9,0,35.4,15.9,35.4,35.1l0,0.8
	c-0.3,18.9-15,34.7-35.6,34.7c-20.9,0-35.4-15.9-35.4-35.1l0-0.8C580.2,276.6,594.9,260.7,615.5,260.7z M314.8,261.4l29.9,68.8
	l-12.1,0l-23.5-54.5l-23.3,54.5l-11.9,0l29.9-68.8H314.8z M468.7,261.4l29.9,68.8l-12.1,0l-23.5-54.5l-23.3,54.5l-11.9,0l29.9-68.8
	H468.7z M674.8,261.9l36.4,47.2v-47.2h11.7v68.3h-10l-37.4-48.6v48.6h-11.7v-68.3H674.8z M615.3,271.8c-13.5,0-22.9,10.7-22.9,24
	l0,0.8c0.3,13,9.7,23.6,23.1,23.6c13.5,0,22.9-10.7,22.9-24l0-0.8C638.1,282.5,628.7,271.8,615.3,271.8z"/>
<path class="st1" d="M389.4,260.7c8.6,0,15.3,2.6,19.6,6.9c3.6,3.9,5.6,8.9,5.6,15l0,0.6c-0.1,10.9-6.5,17.6-15.5,20.5l-0.6,0.2
	l18.4,26.3h-14.2L386,306l-8.8,0l6.2-10.8l5.1,0c8.4,0,13.7-4.3,14-11.1l0-0.5l0-0.5c-0.1-7.4-5.3-11.2-14.1-11.2H371l0,21.5l0,0
	v15.5l0,0l0,21.4h-12v-69.4H389.4z"/>
</svg>
